<svg width="2273" height="469" viewBox="0 0 2273 469" fill="none" xmlns="http://www.w3.org/2000/svg">
<path opacity="0.2" fill-rule="evenodd" clip-rule="evenodd" d="M-8 195.186H63.5608V468.444H-8V195.186Z" fill="#D63300"/>
<path fill-rule="evenodd" clip-rule="evenodd" d="M90.3958 62.4609H161.957V468.445H90.3958V62.4609Z" fill="#D63300"/>
<path opacity="0.2" fill-rule="evenodd" clip-rule="evenodd" d="M193.265 124.92H264.825V468.445H193.265V124.92Z" fill="#D63300"/>
<path opacity="0.2" fill-rule="evenodd" clip-rule="evenodd" d="M394.529 195.186H466.09V468.444H394.529V195.186Z" fill="#D63300"/>
<path opacity="0.2" fill-rule="evenodd" clip-rule="evenodd" d="M492.925 234.226H564.486V468.447H492.925V234.226Z" fill="#D63300"/>
<path opacity="0.2" fill-rule="evenodd" clip-rule="evenodd" d="M595.794 124.92H667.354V468.445H595.794V124.92Z" fill="#D63300"/>
<path opacity="0.2" fill-rule="evenodd" clip-rule="evenodd" d="M694.189 257.646H765.75V468.446H694.189V257.646Z" fill="#D63300"/>
<path opacity="0.2" fill-rule="evenodd" clip-rule="evenodd" d="M291.66 257.646H363.221V468.446H291.66V257.646Z" fill="#D63300"/>
<path opacity="0.2" fill-rule="evenodd" clip-rule="evenodd" d="M797.058 195.186H868.619V468.444H797.058V195.186Z" fill="#D63300"/>
<path fill-rule="evenodd" clip-rule="evenodd" d="M895.455 62.4609H967.016V468.445H895.455V62.4609Z" fill="#D63300"/>
<path fill-rule="evenodd" clip-rule="evenodd" d="M2103.04 0H2174.6V468.443H2103.04V0Z" fill="#D63300"/>
<path opacity="0.2" fill-rule="evenodd" clip-rule="evenodd" d="M998.324 124.92H1069.88V468.445H998.324V124.92Z" fill="#D63300"/>
<path opacity="0.2" fill-rule="evenodd" clip-rule="evenodd" d="M1195.12 195.186H1266.68V468.444H1195.12V195.186Z" fill="#D63300"/>
<path opacity="0.2" fill-rule="evenodd" clip-rule="evenodd" d="M1297.98 234.226H1369.54V468.447H1297.98V234.226Z" fill="#D63300"/>
<path opacity="0.2" fill-rule="evenodd" clip-rule="evenodd" d="M1396.38 124.92H1467.94V468.445H1396.38V124.92Z" fill="#D63300"/>
<path opacity="0.2" fill-rule="evenodd" clip-rule="evenodd" d="M1499.25 257.646H1570.81V468.446H1499.25V257.646Z" fill="#D63300"/>
<path opacity="0.2" fill-rule="evenodd" clip-rule="evenodd" d="M1096.72 257.646H1168.28V468.446H1096.72V257.646Z" fill="#D63300"/>
<path opacity="0.2" fill-rule="evenodd" clip-rule="evenodd" d="M1597.64 195.186H1669.21V468.444H1597.64V195.186Z" fill="#D63300"/>
<path opacity="0.2" fill-rule="evenodd" clip-rule="evenodd" d="M1700.51 62.4609H1772.07V468.445H1700.51V62.4609Z" fill="#D63300"/>
<path opacity="0.2" fill-rule="evenodd" clip-rule="evenodd" d="M1798.91 124.92H1870.47V468.445H1798.91V124.92Z" fill="#D63300"/>
<path opacity="0.2" fill-rule="evenodd" clip-rule="evenodd" d="M2000.17 195.186H2071.73V468.444H2000.17V195.186Z" fill="#D63300"/>
<path fill-rule="evenodd" clip-rule="evenodd" d="M2103.04 0H2174.6V468.443H2103.04V0Z" fill="#D63300"/>
<path opacity="0.2" fill-rule="evenodd" clip-rule="evenodd" d="M2201.44 124.92H2273V468.445H2201.44V124.92Z" fill="#D63300"/>
<path opacity="0.2" fill-rule="evenodd" clip-rule="evenodd" d="M1901.78 257.646H1973.34V468.446H1901.78V257.646Z" fill="#D63300"/>
</svg>
